<?xml version="1.0" encoding="UTF-8" standalone="no"?>
<svg
   width="28"
   height="22"
   viewBox="0 0 28 22"
   fill="none"
   version="1.1"
   id="svg8"
   sodipodi:docname="hamburger_menu_button_click.svg"
   inkscape:version="1.2.2 (b0a8486541, 2022-12-01)"
   xmlns:inkscape="http://www.inkscape.org/namespaces/inkscape"
   xmlns:sodipodi="http://sodipodi.sourceforge.net/DTD/sodipodi-0.dtd"
   xmlns="http://www.w3.org/2000/svg"
   xmlns:svg="http://www.w3.org/2000/svg">
  <defs
     id="defs12" />
  <sodipodi:namedview
     id="namedview10"
     pagecolor="#ffffff"
     bordercolor="#666666"
     borderopacity="1.0"
     inkscape:showpageshadow="2"
     inkscape:pageopacity="0.0"
     inkscape:pagecheckerboard="0"
     inkscape:deskcolor="#d1d1d1"
     showgrid="false"
     inkscape:zoom="25.602425"
     inkscape:cx="14.022109"
     inkscape:cy="10.174817"
     inkscape:window-width="1546"
     inkscape:window-height="834"
     inkscape:window-x="0"
     inkscape:window-y="0"
     inkscape:window-maximized="1"
     inkscape:current-layer="svg8" />
  <path
     style="fill:#252525;stroke-width:0.0296053"
     d="M 1.582254,5.6227059 C 1.3208743,5.539061 1.1241782,5.4168567 0.93673682,5.221656 0.48762011,4.7539476 0.39010875,4.0912246 0.68483175,3.5096167 0.78557051,3.3108184 1.1109185,2.9854704 1.3097168,2.8847317 1.6646148,2.7048913 0.66776028,2.7179593 14.002108,2.7183434 c 13.299326,3.831e-4 12.315899,-0.012486 12.68316,0.1659676 0.211972,0.1029982 0.526942,0.4182255 0.632505,0.6330231 0.222269,0.4522657 0.222845,0.9023536 0.0017,1.3618421 -0.09525,0.1980369 -0.40916,0.5174085 -0.617741,0.6285337 C 26.355096,5.6923854 27.386464,5.6786723 13.974866,5.6769262 2.3404181,5.6754115 1.7387258,5.672779 1.582254,5.6227059 Z"
     id="path1281" />
  <path
     style="fill:#252525;stroke-width:0.0296053"
     d="M 1.6902755,12.660758 C 1.1422162,12.572103 0.62435657,12.070003 0.50907611,11.515504 0.33505331,10.678455 0.90018107,9.8565215 1.7346834,9.7329559 1.8757928,9.7120617 5.8198207,9.7048502 14.094881,9.7103559 l 12.152961,0.00809 0.175266,0.06675 c 0.25677,0.097791 0.415051,0.1989127 0.590685,0.3773761 0.56911,0.578275 0.56911,1.493999 0,2.072275 -0.175634,0.178463 -0.333915,0.279585 -0.590685,0.377375 l -0.175266,0.06675 -12.197369,0.0041 c -7.0036628,0.0023 -12.266702,-0.0072 -12.3601975,-0.02228 z"
     id="path1283" />
  <path
     style="display:inline;fill:#252525;stroke-width:0.0296053"
     d="M 1.6213189,19.335888 C 1.3665879,19.267286 1.1663004,19.147703 0.95910845,18.940511 0.85138573,18.832788 0.72796121,18.675014 0.68483175,18.589902 0.254645,17.740969 0.6911385,16.741769 1.6114589,16.46871 1.7582035,16.42517 2.8400709,16.421 13.98764,16.421 c 10.879157,0 12.23444,0.005 12.389614,0.04538 0.257788,0.06715 0.451398,0.182359 0.669315,0.3983 0.209112,0.207216 0.322294,0.405533 0.396608,0.694939 0.195764,0.762372 -0.295691,1.569195 -1.083567,1.778896 -0.237505,0.06321 -24.5033805,0.06063 -24.7382911,-0.0026 z"
     id="path1285" />
</svg>
